<svg xmlns="http://www.w3.org/2000/svg" width="860" height="860" viewBox="-320 -540 640 860"><title>Wikimedia Commons</title><circle r="100" fill="currentColor"/><g stroke="currentColor"><path fill="none" stroke-width="84" d="M-173-189a256 256 0 1 0 354 6C110-254 4-218-18-373"/><path stroke-width="22" d="m-181-181 54 54m254 254 54 54m-362 0 54-54m254-254 54-54M256 0h-76m-360 0h-76M0 180v76"/><path fill="currentColor" d="m-78-78-83-22 61-61zm156 0 22-83 61 61zm32 78 75-43v86zM78 78l22 83 61-61zM0 110l-43 75h86zm-78-32-22 83-61-61zm-32-78-75-43v86zm87-515s-36 135-80 185 116-62 170-5-90-180-90-180"/></g></svg>