<svg xmlns="http://www.w3.org/2000/svg" width="742.753" height="742.753" viewBox="0 0 196.52 196.52"><title>Fediverse</title><path d="M47.924 72.797a18.23 18.23 0 0 1-7.796 7.76l42.799 42.965 10.318-5.23zm56.453 56.67-10.319 5.23 21.686 21.77a18.23 18.23 0 0 1 7.798-7.76zm25.288-27.39 1.786 11.427 27.415-13.895a18.23 18.23 0 0 1-4.972-9.812zm-14.066 7.128-57.29 29.034a18.23 18.23 0 0 1 4.973 9.813l54.103-27.42zM69.531 91.654l8.162 8.193 29.269-57.139a18.23 18.23 0 0 1-9.787-5.021zm-7.19 14.036L48.34 133.025a18.23 18.23 0 0 1 9.786 5.022l12.378-24.164zM39.89 80.676a18.23 18.23 0 0 1-10.865 1.72l8.176 52.298a18.23 18.23 0 0 1 10.865-1.72zm23.436 67.634a18.23 18.23 0 0 1-1.732 10.864l52.289 8.39a18.23 18.23 0 0 1 1.732-10.862zm71.589-1.392a18.23 18.23 0 0 1 9.788 5.023l24.134-47.117a18.23 18.23 0 0 1-9.787-5.023zM126.133 33.16a18.23 18.23 0 0 1-7.798 7.761l37.377 37.52a18.23 18.23 0 0 1 7.797-7.76zM44.77 51.628a18.23 18.23 0 0 1 4.973 9.812L96.99 37.495a18.23 18.23 0 0 1-4.971-9.811zm73.48-10.663a18.23 18.23 0 0 1-10.852 1.812l4.185 26.8 11.42 1.832zm-4.234 44.192 9.895 63.363a18.23 18.23 0 0 1 10.88-1.627l-9.355-59.904zm-64.24-23.516a18.23 18.23 0 0 1-1.694 10.869l26.82 4.307 5.272-10.294zm45.968 7.382L90.472 79.32l63.371 10.177a18.23 18.23 0 0 1 1.76-10.859z"/><path d="M93.439 23.842a1 1 0 1 0 33.092 1.802 1 1 0 1 0-33.092-1.802m61.875 62.115a1 1 0 1 0 33.092 1.803 1 1 0 1 0-33.092-1.803m-39.967 78.025a1 1 0 1 0 33.092 1.803 1 1 0 1 0-33.092-1.803M28.77 150.09a1 1 0 1 0 33.092 1.802 1 1 0 1 0-33.092-1.802M15.23 63.478a1 1 0 1 0 33.092 1.803 1 1 0 1 0-33.092-1.803"/></svg>