<svg width="596" height="133" viewBox="0 0 596 133" xmlns="http://www.w3.org/2000/svg">
<path opacity="0.6" d="M6.57645 3.59883C7.30999 4.44477 7.25283 4.72883 7.5291 5.86202C7.16392 5.96619 6.62411 6.34494 6.3669 6.69846L1.30513 1.2914C3.1755 1.10201 5.40787 2.19103 6.57645 3.59883ZM9.70749 7.25085C10.3426 7.88216 10.3426 8.90794 9.70431 9.53609C9.06921 10.1516 8.04036 10.1517 7.41161 9.52668C6.78286 8.89538 6.78287 7.88216 7.42115 7.25085C8.0499 6.61324 9.07239 6.62586 9.70749 7.25085ZM10.4664 1.35444C10.6633 1.86579 10.7713 3.06534 11.508 3.87656C10.5204 4.72882 10.3013 5.18327 9.97426 5.99765C9.63448 5.80195 9.28199 5.68837 8.93269 5.65996L10.4664 1.35444ZM32.2345 1.14621L28.0714 2.43086C21.5077 4.76352 19.1483 9.63715 14.204 9.35622C13.1529 9.25837 12.2606 9.04372 11.3937 8.56077C11.435 8.24197 11.327 7.86004 11.2286 7.54755C15.4298 5.076 24.4704 2.24784 32.2345 1.14621ZM13.534 13.2955L10.2791 10.6094C12.5369 10.5621 13.5594 10.5525 13.5594 10.5525C13.1593 12.2508 13.534 13.2955 13.534 13.2955ZM3.94081 26.7013C1.12096 33.9455 1.60997 34.1885 0.819266 37.1998C1.62584 27.0611 4.68069 18.6963 7.62121 11.0354C7.62121 11.0354 8.30711 11.2438 8.65324 11.1712C9.26294 11.8688 9.3963 12.8789 9.3963 12.8789C10.9142 17.822 6.15731 20.9912 3.94081 26.7013ZM1.39723 10.1927C2.09266 9.90542 5.74447 8.69964 5.74447 8.69964L6.02392 9.54564C4.73784 10.3095 4.09638 11.3165 4.07098 11.4901C3.82329 11.468 2.38799 10.3978 1.39723 10.1927ZM2.31495 6.59428C1.9847 8.0147 0.800227 9.39089 0 10.562C1.02251 11.0544 2.31496 11.7205 3.1914 12.4907C1.25751 15.401 0.568421 16.8782 0.24452 20.385L0.501715 38.5635C2.35938 33.0964 4.49016 27.0611 7.545 22.6072C8.40873 21.3415 8.58336 21.0101 9.06921 20.2621C9.67573 19.334 10.965 17.4527 10.9142 14.2425C12.0161 14.0152 13.3435 14.2993 14.6168 14.4003C14.4581 13.0241 14.2866 12.7558 14.6422 10.5052C19.9326 10.2937 20.9552 7.08993 26.6488 4.15754C29.2654 2.80655 30.3578 2.2573 33.8064 0.98207C23.1081 1.01995 18.3766 -0.716138 12.4067 3.26422C11.7144 2.3583 11.3493 1.08613 10.8888 0.00660372C10.0473 0.669471 8.22771 1.85638 6.85272 2.20044C5.27767 0.663219 2.94051 -0.204771 0.234984 0.0414363C-0.152427 2.21311 0.609709 5.1265 2.31495 6.59428ZM6.57645 112.309C7.30999 111.46 7.25283 111.185 7.5291 110.046C7.16392 109.948 6.62411 109.556 6.3669 109.206L1.30513 114.623C3.1755 114.799 5.40787 113.72 6.57645 112.309ZM9.70749 108.647C10.3426 108.026 10.3426 107.003 9.70431 106.375C9.06921 105.753 8.04036 105.753 7.41161 106.391C6.78286 107.012 6.78287 108.032 7.42115 108.647C8.0499 109.291 9.07239 109.291 9.70749 108.647ZM10.4664 114.544C10.6633 114.039 10.7713 112.846 11.508 112.019C10.5204 111.185 10.3013 110.731 9.97426 109.913C9.63448 110.106 9.28199 110.213 8.93269 110.245L10.4664 114.544ZM32.2345 114.768L28.0714 113.48C21.5077 111.141 19.1483 106.261 14.204 106.551C13.1529 106.656 12.2606 106.858 11.3937 107.341C11.435 107.659 11.327 108.041 11.2286 108.36C15.4298 110.825 24.4704 113.666 32.2345 114.768ZM13.534 102.612L10.2791 105.298C12.5369 105.352 13.5594 105.358 13.5594 105.358C13.1593 103.66 13.534 102.612 13.534 102.612ZM3.94081 89.2128C1.12096 81.9623 1.60997 81.7256 0.819266 78.7174C1.62584 88.8435 4.68069 97.205 7.62121 104.875C7.62121 104.875 8.30711 104.661 8.65324 104.73C9.26294 104.033 9.3963 103.026 9.3963 103.026C10.9142 98.0888 6.15731 94.9072 3.94081 89.2128ZM1.39723 105.709C2.09266 106.002 5.74447 107.221 5.74447 107.221L6.02392 106.359C4.73784 105.592 4.09638 104.588 4.07098 104.424C3.82329 104.443 2.38799 105.507 1.39723 105.709ZM2.31495 109.313C1.9847 107.887 0.800227 106.51 0 105.352C1.02251 104.856 2.31496 104.175 3.1914 103.411C1.25751 100.494 0.568421 99.0359 0.24452 95.5258L0.501715 77.3411C2.35938 82.805 4.49016 88.8435 7.545 93.3036C8.40873 94.5726 8.58336 94.8976 9.06921 95.6488C9.67573 96.5642 10.965 98.4456 10.9142 101.662C12.0161 101.892 13.3435 101.602 14.6168 101.517C14.4581 102.893 14.2866 103.155 14.6422 105.396C19.9326 105.608 20.9552 108.821 26.6488 111.76C29.2654 113.101 30.3578 113.644 33.8064 114.922C23.1081 114.881 18.3766 116.627 12.4067 112.637C11.7144 113.553 11.3493 114.828 10.8888 115.91C10.0473 115.238 8.22771 114.058 6.85272 113.695C5.27767 115.251 2.94051 116.106 0.234984 115.869C-0.152427 113.695 0.609709 110.775 2.31495 109.313ZM94.4267 3.69346C93.69 4.54572 93.7535 4.8204 93.4773 5.96621C93.8393 6.06722 94.3918 6.45228 94.6395 6.79633L99.7108 1.38295C97.8213 1.20303 95.6017 2.28566 94.4267 3.69346ZM91.2989 7.35813C90.6669 7.98311 90.6669 8.99958 91.3084 9.63719C91.9371 10.259 92.9565 10.2495 93.5979 9.61824C94.2267 8.99009 94.2267 7.97363 93.5947 7.34549C92.9469 6.71734 91.9213 6.71735 91.2989 7.35813ZM90.5399 1.46187C90.3399 1.96691 90.2414 3.16313 89.492 3.9712C90.4827 4.8203 90.7051 5.27483 91.029 6.09552C91.3719 5.89666 91.7212 5.7957 92.0768 5.75151L90.5399 1.46187ZM68.7782 1.24717L72.9318 2.52241C79.4987 4.8677 81.8581 9.7445 86.7992 9.46673C87.8566 9.34994 88.7331 9.14475 89.6063 8.66496C89.5746 8.33037 89.6825 7.96416 89.7746 7.65482C85.5766 5.16118 76.5359 2.33932 68.7782 1.24717ZM87.4755 13.3903L90.7241 10.7073C88.479 10.6599 87.4438 10.6441 87.4438 10.6441C87.8471 12.3455 87.4755 13.3903 87.4755 13.3903ZM97.0656 26.8023C99.8886 34.0401 99.3869 34.2896 100.2 37.2882C99.3774 27.1622 96.3257 18.791 93.382 11.127C93.382 11.127 92.7024 11.3354 92.3468 11.2754C91.7498 11.973 91.6069 12.9736 91.6069 12.9736C90.0858 17.9135 94.8459 21.0827 97.0656 26.8023ZM99.6155 10.2938C98.9042 10.0097 95.2619 8.79751 95.2619 8.79751L94.9888 9.64983C96.2685 10.4106 96.9131 11.408 96.929 11.5847C97.1831 11.5626 98.6247 10.4926 99.6155 10.2938ZM98.6883 6.68906C99.0217 8.11581 100.212 9.49191 101 10.6598C99.9838 11.1617 98.6883 11.8309 97.8023 12.5916C99.752 15.5114 100.451 16.9697 100.759 20.4766L100.505 38.6612C98.6501 33.1941 96.5131 27.1621 93.455 22.6988C92.5977 21.433 92.4198 21.1079 91.9371 20.3534C91.3274 19.4412 90.0445 17.5538 90.0858 14.3436C88.9871 14.1132 87.6597 14.4004 86.3864 14.4888C86.5451 13.1157 86.7198 12.8473 86.3578 10.5935C81.0674 10.3978 80.0544 7.18133 74.3544 4.24893C71.7441 2.90426 70.639 2.35833 67.1936 1.08626C77.9109 1.12098 82.6266 -0.624655 88.5933 3.36517C89.2951 2.44978 89.654 1.18408 90.1081 0.107711C90.9591 0.764265 92.7723 1.94794 94.1536 2.30463C95.735 0.764252 98.0563 -0.106975 100.778 0.142389C101.152 2.3046 100.394 5.2276 98.6883 6.68906ZM94.4267 112.401C93.69 111.558 93.7535 111.28 93.4773 110.137C93.8393 110.036 94.3918 109.654 94.6395 109.301L99.7108 114.727C97.8213 114.897 95.6017 113.811 94.4267 112.401ZM91.2989 108.755C90.6669 108.114 90.6669 107.091 91.3084 106.466C91.9371 105.844 92.9565 105.857 93.5979 106.466C94.2267 107.107 94.2267 108.127 93.5947 108.755C92.9469 109.383 91.9213 109.383 91.2989 108.755ZM90.5399 114.645C90.3399 114.13 90.2414 112.937 89.492 112.116C90.4827 111.289 90.7051 110.825 91.029 110.014C91.3719 110.204 91.7212 110.305 92.0768 110.333L90.5399 114.645ZM68.7782 114.856L72.9318 113.575C79.4987 111.233 81.8581 106.359 86.7992 106.646C87.8566 106.757 88.7331 106.949 89.6063 107.445C89.5746 107.76 89.6825 108.133 89.7746 108.452C85.5766 110.93 76.5359 113.761 68.7782 114.856ZM87.4755 102.707L90.7241 105.396C88.479 105.44 87.4438 105.463 87.4438 105.463C87.8471 103.755 87.4755 102.707 87.4755 102.707ZM97.0656 89.3074C99.8886 82.0664 99.3869 81.817 100.2 78.8057C99.3774 88.9444 96.3257 97.2965 93.382 104.967C93.382 104.967 92.7024 104.765 92.3468 104.834C91.7498 104.121 91.6069 103.127 91.6069 103.127C90.0858 98.1803 94.8459 95.0049 97.0656 89.3074ZM99.6155 105.807C98.9042 106.1 95.2619 107.312 95.2619 107.312L94.9888 106.45C96.2685 105.699 96.9131 104.689 96.929 104.528C97.1831 104.547 98.6247 105.608 99.6155 105.807ZM98.6883 109.411C99.0217 107.978 100.212 106.611 101 105.453C99.9838 104.948 98.6883 104.272 97.8023 103.518C99.752 100.598 100.451 99.1463 100.759 95.6205L100.505 77.4422C98.6501 82.8966 96.5131 88.9445 93.455 93.3952C92.5977 94.6641 92.4198 94.9891 91.9371 95.7467C91.3274 96.6589 90.0445 98.5497 90.0858 101.769C88.9871 101.993 87.6597 101.697 86.3864 101.602C86.5451 102.982 86.7198 103.247 86.3578 105.497C81.0674 105.709 80.0544 108.913 74.3544 111.861C71.7441 113.212 70.639 113.751 67.1936 115.014C77.9109 114.982 82.6266 116.722 88.5933 112.735C89.2951 113.654 89.654 114.923 90.1081 115.999C90.9591 115.342 92.7723 114.152 94.1536 113.792C95.735 115.342 98.0563 116.198 100.778 115.961C101.152 113.792 100.394 110.882 98.6883 109.411ZM85.0241 88.6162C90.4701 80.0684 93.69 69.4498 93.69 57.9412C93.69 46.4231 90.4701 35.8078 85.0241 27.26V23.3996C91.7942 32.6955 95.8748 44.7438 95.8748 57.9412C95.8748 71.1259 91.7942 83.1744 85.0241 92.4703V88.6162ZM65.5265 108.171V105.788C68.7147 104.392 71.7219 102.562 74.5036 100.371V103.117C71.7028 105.159 68.6956 106.874 65.5265 108.171ZM50.5064 111.166C48.9948 111.166 47.5055 111.078 46.0226 110.911V108.695C47.5055 108.878 48.9948 108.969 50.5064 108.969C52.0243 108.969 53.5262 108.868 54.9997 108.695V110.911C53.5262 111.078 52.0243 111.166 50.5064 111.166ZM26.5282 103.136V100.381C29.3131 102.581 32.3171 104.415 35.5084 105.797V108.187C32.3488 106.892 29.3321 105.188 26.5282 103.136ZM5.12209 57.9412C5.12209 44.7343 9.21532 32.6607 16.0045 23.3458V27.2252C10.549 35.7698 7.31001 46.4041 7.31001 57.9412C7.31001 69.4656 10.549 80.1157 16.0045 88.6509V92.5271C9.21532 83.2154 5.12209 71.1354 5.12209 57.9412ZM35.5084 7.68965V10.0728C32.3171 11.4679 29.3131 13.2892 26.5282 15.4925V12.7401C29.3321 10.6852 32.3488 8.99013 35.5084 7.68965ZM50.5064 4.71301C52.0243 4.71301 53.5262 4.79194 54.9997 4.9687V7.18134C53.5262 7.00458 52.0243 6.91316 50.5064 6.91316C48.9948 6.91316 47.5055 7.00458 46.0226 7.18134V4.9687C47.5055 4.79194 48.9948 4.71301 50.5064 4.71301ZM74.5036 12.7684V15.5114C71.7219 13.305 68.7147 11.49 65.5265 10.0917V7.68965C68.6956 8.9996 71.7028 10.7072 74.5036 12.7684ZM85.0241 30.5585C89.438 38.3803 92.0038 47.7993 92.0038 57.9412C92.0038 68.0673 89.438 77.4769 85.0241 85.3271V30.5585ZM65.5265 11.9636C68.7274 13.444 71.7409 15.3758 74.5036 17.7116V98.171C71.7409 100.494 68.7274 102.435 65.5265 103.906V11.9636ZM46.0226 8.92066C47.496 8.73443 48.9948 8.63337 50.5064 8.63337C52.0243 8.63337 53.5262 8.73443 54.9997 8.92066V106.949C53.5262 107.139 52.0243 107.243 50.5064 107.243C48.9948 107.243 47.496 107.145 46.0226 106.949V8.92066ZM26.5282 17.6894C29.2908 15.3567 32.298 13.425 35.5084 11.9446V103.928C32.298 102.445 29.2908 100.513 26.5282 98.2025V17.6894ZM16.0045 85.3744C11.5715 77.54 8.98669 68.102 8.98669 57.9412C8.98669 47.7804 11.5715 38.3457 16.0045 30.5081V85.3744ZM50.5064 0.590589C23.1717 0.590589 1.0225 26.2688 1.0225 57.9412C1.0225 89.6104 23.1717 115.282 50.5064 115.282C77.8284 115.282 99.9743 89.6104 99.9743 57.9412C99.9743 26.2688 77.8284 0.590589 50.5064 0.590589Z"/>
<g opacity="0.6">
<path d="M172.289 30.745L172.226 55H165.989L165.044 49.897C161.705 54.055 157.232 56.071 151.562 56.071C145.325 56.071 140.222 53.929 136.316 49.582C132.41 45.298 130.457 39.691 130.457 32.761C130.457 25.831 132.536 20.224 136.631 15.814C140.789 11.404 146.081 9.199 152.507 9.199C157.673 9.199 161.957 10.648 165.485 13.546C169.013 16.444 171.092 20.224 171.659 24.886H162.146C161.705 22.555 160.634 20.728 158.87 19.405C157.169 18.145 155.027 17.452 152.444 17.452C148.664 17.452 145.766 18.838 143.624 21.547C141.482 24.256 140.411 27.973 140.411 32.761C140.411 37.675 141.482 41.455 143.624 44.164C145.766 46.873 148.853 48.196 152.759 48.196C155.783 48.196 158.303 47.314 160.319 45.424C162.272 43.534 163.343 41.077 163.469 38.053H153.452V30.745H172.289ZM208.816 44.92C207.808 48.448 205.918 51.157 203.209 53.047C200.5 55 197.287 55.945 193.507 55.945C188.53 55.945 184.498 54.433 181.474 51.283C178.45 48.196 176.938 44.101 176.938 38.935C176.938 33.895 178.45 29.737 181.537 26.461C184.561 23.185 188.467 21.547 193.255 21.547C198.169 21.547 202.075 23.248 204.973 26.587C207.871 29.926 209.32 34.462 209.32 40.132V41.014H186.01C186.01 43.849 186.703 45.991 188.026 47.44C189.349 48.952 191.239 49.645 193.633 49.645C196.783 49.645 198.988 48.07 200.248 44.92H208.816ZM200.185 35.344C199.996 33.202 199.303 31.501 198.106 30.115C196.972 28.729 195.334 28.036 193.192 28.036C191.239 28.036 189.601 28.729 188.278 29.989C187.018 31.312 186.199 33.076 185.947 35.344H200.185ZM244.109 55H235.037V36.037C235.037 33.769 234.659 32.005 233.903 30.808C233.147 29.611 231.635 28.981 229.493 28.981C224.768 28.981 222.437 31.879 222.437 37.549V55H213.554V22.492H222.059V27.028C224.705 23.437 228.296 21.61 232.832 21.61C236.297 21.61 239.069 22.618 241.085 24.634C243.101 26.65 244.109 29.548 244.109 33.265V55ZM280.446 44.92C279.438 48.448 277.548 51.157 274.839 53.047C272.13 55 268.917 55.945 265.137 55.945C260.16 55.945 256.128 54.433 253.104 51.283C250.08 48.196 248.568 44.101 248.568 38.935C248.568 33.895 250.08 29.737 253.167 26.461C256.191 23.185 260.097 21.547 264.885 21.547C269.799 21.547 273.705 23.248 276.603 26.587C279.501 29.926 280.95 34.462 280.95 40.132V41.014H257.64C257.64 43.849 258.333 45.991 259.656 47.44C260.979 48.952 262.869 49.645 265.263 49.645C268.413 49.645 270.618 48.07 271.878 44.92H280.446ZM271.815 35.344C271.626 33.202 270.933 31.501 269.736 30.115C268.602 28.729 266.964 28.036 264.822 28.036C262.869 28.036 261.231 28.729 259.908 29.989C258.648 31.312 257.829 33.076 257.577 35.344H271.815ZM306.227 21.925V30.178C304.967 29.926 303.77 29.8 302.762 29.8C299.801 29.8 297.659 30.745 296.273 32.635C294.887 34.525 294.194 36.982 294.194 40.132V55H285.248V22.492H293.753V28.477C295.895 24.004 299.36 21.736 304.274 21.736C304.652 21.736 305.345 21.799 306.227 21.925ZM338.903 55H329.768C329.516 54.181 329.264 53.11 329.138 51.85C326.429 54.622 322.901 55.945 318.617 55.945C315.026 55.945 312.191 55.126 310.112 53.362C308.096 51.598 307.025 49.204 307.025 46.117C307.025 44.731 307.214 43.534 307.592 42.463C307.97 41.455 308.537 40.573 309.356 39.817C310.175 39.124 310.931 38.557 311.687 38.053C312.443 37.612 313.451 37.234 314.711 36.919C316.034 36.667 317.105 36.415 317.861 36.289C318.68 36.163 319.814 35.974 321.263 35.785C324.413 35.407 326.492 34.966 327.563 34.462C328.634 34.021 329.201 33.139 329.201 31.879C329.201 28.981 327.248 27.532 323.342 27.532C321.263 27.532 319.751 27.91 318.806 28.666C317.798 29.422 317.168 30.682 316.916 32.509H308.537C309.041 25.201 314.018 21.547 323.594 21.547C333.044 21.547 337.769 25.075 337.769 32.131V46.18C337.769 50.338 338.147 53.236 338.903 55ZM329.075 39.187C328.067 39.817 325.925 40.447 322.775 40.951C320.129 41.329 318.428 41.896 317.609 42.526C316.727 43.282 316.223 44.416 316.223 45.802C316.223 47.125 316.664 48.196 317.546 48.952C318.428 49.708 319.625 50.086 321.137 50.086C323.531 50.086 325.484 49.456 326.933 48.196C328.382 46.936 329.075 45.109 329.075 42.841V39.187ZM353.092 10.144V55H344.146V10.144H353.092ZM368.389 10.144V17.704H359.443V10.144H368.389ZM368.389 22.492V55H359.443V22.492H368.389ZM392.38 22.492V28.603H385.765V43.912C385.765 44.857 385.765 45.55 385.828 45.991C385.828 46.432 386.017 46.873 386.269 47.377C386.521 47.818 386.899 48.133 387.403 48.259C387.907 48.385 388.663 48.448 389.671 48.448C390.742 48.448 391.624 48.448 392.38 48.322V55.126C390.175 55.315 388.348 55.378 386.962 55.378C383.056 55.378 380.347 54.748 378.961 53.362C377.575 51.976 376.882 49.33 376.882 45.424V28.54H371.464V22.492H376.882V12.664H385.765V22.492H392.38ZM425.932 55H416.797C416.545 54.181 416.293 53.11 416.167 51.85C413.458 54.622 409.93 55.945 405.646 55.945C402.055 55.945 399.22 55.126 397.141 53.362C395.125 51.598 394.054 49.204 394.054 46.117C394.054 44.731 394.243 43.534 394.621 42.463C394.999 41.455 395.566 40.573 396.385 39.817C397.204 39.124 397.96 38.557 398.716 38.053C399.472 37.612 400.48 37.234 401.74 36.919C403.063 36.667 404.134 36.415 404.89 36.289C405.709 36.163 406.843 35.974 408.292 35.785C411.442 35.407 413.521 34.966 414.592 34.462C415.663 34.021 416.23 33.139 416.23 31.879C416.23 28.981 414.277 27.532 410.371 27.532C408.292 27.532 406.78 27.91 405.835 28.666C404.827 29.422 404.197 30.682 403.945 32.509H395.566C396.07 25.201 401.047 21.547 410.623 21.547C420.073 21.547 424.798 25.075 424.798 32.131V46.18C424.798 50.338 425.176 53.236 425.932 55ZM416.104 39.187C415.096 39.817 412.954 40.447 409.804 40.951C407.158 41.329 405.457 41.896 404.638 42.526C403.756 43.282 403.252 44.416 403.252 45.802C403.252 47.125 403.693 48.196 404.575 48.952C405.457 49.708 406.654 50.086 408.166 50.086C410.56 50.086 412.513 49.456 413.962 48.196C415.411 46.936 416.104 45.109 416.104 42.841V39.187ZM448.815 22.492V28.603H442.2V43.912C442.2 44.857 442.2 45.55 442.263 45.991C442.263 46.432 442.452 46.873 442.704 47.377C442.956 47.818 443.334 48.133 443.838 48.259C444.342 48.385 445.098 48.448 446.106 48.448C447.177 48.448 448.059 48.448 448.815 48.322V55.126C446.61 55.315 444.783 55.378 443.397 55.378C439.491 55.378 436.782 54.748 435.396 53.362C434.01 51.976 433.317 49.33 433.317 45.424V28.54H427.899V22.492H433.317V12.664H442.2V22.492H448.815ZM163.091 118H154.586V113.842C152.444 117.244 149.168 118.882 144.758 118.882C140.285 118.882 136.694 117.37 134.048 114.22C131.402 111.07 130.079 106.912 130.079 101.62C130.079 96.517 131.339 92.422 133.922 89.335C136.505 86.185 139.97 84.673 144.317 84.673C146.333 84.673 148.223 85.051 149.987 85.933C151.751 86.752 153.2 87.949 154.208 89.524V73.144H163.091V118ZM154.46 101.683C154.46 98.533 153.83 96.139 152.444 94.375C151.058 92.611 149.168 91.729 146.774 91.729C144.317 91.729 142.427 92.611 141.104 94.375C139.718 96.139 139.088 98.533 139.088 101.683C139.088 104.833 139.718 107.29 141.104 109.054C142.49 110.818 144.38 111.763 146.774 111.763C149.231 111.763 151.121 110.881 152.444 109.117C153.83 107.353 154.46 104.896 154.46 101.683ZM199.526 107.92C198.518 111.448 196.628 114.157 193.919 116.047C191.21 118 187.997 118.945 184.217 118.945C179.24 118.945 175.208 117.433 172.184 114.283C169.16 111.196 167.648 107.101 167.648 101.935C167.648 96.895 169.16 92.737 172.247 89.461C175.271 86.185 179.177 84.547 183.965 84.547C188.879 84.547 192.785 86.248 195.683 89.587C198.581 92.926 200.03 97.462 200.03 103.132V104.014H176.72C176.72 106.849 177.413 108.991 178.736 110.44C180.059 111.952 181.949 112.645 184.343 112.645C187.493 112.645 189.698 111.07 190.958 107.92H199.526ZM190.895 98.344C190.706 96.202 190.013 94.501 188.816 93.115C187.682 91.729 186.044 91.036 183.902 91.036C181.949 91.036 180.311 91.729 178.988 92.989C177.728 94.312 176.909 96.076 176.657 98.344H190.895ZM260.544 100.927C260.103 106.471 258.15 110.881 254.622 114.157C251.094 117.433 246.558 119.071 241.014 119.071C234.651 119.071 229.548 116.929 225.768 112.645C221.925 108.361 220.035 102.691 220.035 95.572C220.035 91.288 220.854 87.445 222.492 83.917C224.13 80.389 226.587 77.554 229.863 75.412C233.139 73.27 236.982 72.136 241.392 72.136C246.117 72.136 250.275 73.459 253.803 76.105C257.331 78.751 259.41 82.531 260.166 87.445H252.354C251.787 84.799 250.527 82.657 248.574 81.145C246.558 79.633 244.164 78.814 241.266 78.814C238.242 78.814 235.722 79.696 233.643 81.334C231.564 83.035 230.115 85.114 229.233 87.571C228.351 90.028 227.973 92.674 227.973 95.572C227.973 97.777 228.225 99.856 228.729 101.746C229.233 103.699 229.989 105.463 230.997 107.101C232.005 108.739 233.328 109.999 235.092 110.944C236.856 111.952 238.872 112.393 241.203 112.393C247.881 112.393 251.661 108.613 252.669 100.927H260.544ZM265.374 95.509C266.13 88.201 270.855 84.484 279.612 84.484C283.644 84.484 286.92 85.303 289.314 86.878C291.708 88.516 292.968 90.973 292.968 94.312V110.818C292.968 111.763 293.031 112.393 293.283 112.708C293.535 113.086 293.976 113.212 294.669 113.212C295.173 113.212 295.677 113.212 296.307 113.086V118.126C294.417 118.63 292.905 118.819 291.645 118.819C288.558 118.819 286.794 117.559 286.353 114.913C283.581 117.559 279.801 118.819 274.95 118.819C271.548 118.819 268.902 118 266.949 116.236C264.933 114.472 263.988 112.141 263.988 109.117C263.988 108.235 264.051 107.353 264.303 106.534C264.492 105.778 264.744 105.085 264.996 104.455C265.248 103.888 265.689 103.321 266.319 102.817C266.949 102.313 267.453 101.935 267.831 101.557C268.209 101.242 268.902 100.927 269.784 100.612C270.666 100.36 271.359 100.108 271.8 99.982C272.241 99.856 272.997 99.667 274.131 99.478C275.202 99.352 275.895 99.226 276.273 99.163C276.651 99.1 277.407 98.974 278.541 98.848C281.061 98.533 282.825 98.281 283.77 98.029C284.652 97.777 285.282 97.462 285.66 96.958C285.912 96.643 286.101 95.887 286.101 94.627C286.101 91.351 283.833 89.713 279.423 89.713C277.029 89.713 275.328 90.154 274.257 91.036C273.123 91.918 272.43 93.43 272.178 95.509H265.374ZM286.038 101.683C285.471 101.998 284.841 102.25 284.148 102.502C283.392 102.754 282.825 102.88 282.384 102.943C281.943 103.006 281.25 103.069 280.305 103.195C279.36 103.321 278.73 103.447 278.478 103.447C277.596 103.573 276.903 103.699 276.399 103.825C275.895 103.951 275.265 104.077 274.509 104.329C273.753 104.581 273.186 104.896 272.808 105.274C272.43 105.652 272.052 106.093 271.8 106.723C271.485 107.353 271.359 108.046 271.359 108.865C271.359 110.44 271.863 111.637 272.871 112.456C273.879 113.338 275.328 113.716 277.218 113.716C280.368 113.716 282.825 112.897 284.589 111.133C285.534 110.188 286.038 108.298 286.038 105.526V101.683ZM315.627 85.492V90.721H309.075V107.857C309.075 108.865 309.075 109.621 309.138 109.999C309.138 110.377 309.264 110.818 309.516 111.322C309.705 111.826 310.083 112.141 310.587 112.267C311.091 112.456 311.847 112.519 312.792 112.519C313.926 112.519 314.871 112.519 315.627 112.393V118.063C314.178 118.252 312.54 118.315 310.776 118.315C309.516 118.315 308.382 118.252 307.437 118.063C306.492 117.874 305.736 117.622 305.106 117.37C304.476 117.118 303.909 116.74 303.531 116.11C303.09 115.48 302.775 114.976 302.523 114.598C302.271 114.22 302.145 113.464 302.019 112.456C301.893 111.448 301.893 110.692 301.893 110.188V107.416V107.038V106.66V106.219V90.721H296.475V85.492H301.893V75.727H309.075V85.492H315.627ZM358.531 73.144V100.108C358.531 106.534 356.956 111.322 353.869 114.346C350.782 117.37 345.994 118.882 339.442 118.882C332.764 118.882 327.913 117.37 324.763 114.283C321.613 111.196 320.101 106.408 320.101 99.982V73.144H329.929V99.982C329.929 103.636 330.622 106.345 332.008 108.109C333.394 109.873 335.914 110.755 339.568 110.755C343.096 110.755 345.49 109.873 346.75 108.109C348.01 106.345 348.703 103.636 348.703 99.982V73.144H358.531ZM362.072 85.492H371.585L377.633 107.605L383.114 85.492H391.745L397.415 107.479L403.463 85.492H412.598L402.329 118H393.131L387.335 96.139L381.728 118H372.467L362.072 85.492ZM454.648 73.144V100.108C454.648 106.534 453.073 111.322 449.986 114.346C446.899 117.37 442.111 118.882 435.559 118.882C428.881 118.882 424.03 117.37 420.88 114.283C417.73 111.196 416.218 106.408 416.218 99.982V73.144H426.046V99.982C426.046 103.636 426.739 106.345 428.125 108.109C429.511 109.873 432.031 110.755 435.685 110.755C439.213 110.755 441.607 109.873 442.867 108.109C444.127 106.345 444.82 103.636 444.82 99.982V73.144H454.648ZM470.663 85.492L469.592 90.406C472.616 86.626 476.459 84.673 481.121 84.673C484.019 84.673 486.287 85.429 488.051 86.941C489.815 88.453 490.697 90.406 490.697 92.863C490.697 94.312 490.445 96.139 489.941 98.407L485.846 118H478.538L482.696 98.533C482.948 97.273 483.137 96.013 483.137 94.753C483.137 93.43 482.696 92.422 481.814 91.666C480.932 90.973 479.735 90.595 478.223 90.595C475.325 90.595 472.994 91.603 471.293 93.493C469.592 95.383 468.458 97.84 467.828 100.801L464.174 118H456.992L463.922 85.492H470.663ZM526.054 85.492L505.831 121.969C504.13 125.056 502.303 127.261 500.413 128.521C498.523 129.844 496.192 130.474 493.546 130.474C492.034 130.474 490.522 130.348 489.136 129.97L490.396 124.111C491.656 124.489 492.79 124.615 493.924 124.615C494.68 124.615 495.436 124.426 496.066 124.048C496.696 123.67 497.2 123.166 497.704 122.473C498.145 121.78 498.46 121.213 498.712 120.772C498.901 120.331 499.153 119.764 499.405 119.071L500.602 115.984L495.121 85.492H502.555L504.382 98.029C505.138 103.069 505.642 107.29 505.957 110.692C507.343 107.227 508.981 103.699 510.808 100.171L518.368 85.492H526.054ZM527.314 95.32C528.637 88.264 533.614 84.736 542.245 84.736C546.088 84.736 549.112 85.492 551.38 86.878C553.585 88.327 554.719 90.28 554.719 92.737C554.719 94.249 554.404 96.139 553.9 98.47L551.695 108.298C551.191 110.314 551.002 111.511 551.002 111.889C551.002 112.771 551.443 113.149 552.451 113.149C553.018 113.149 553.963 113.086 555.223 112.834L554.089 118.063C552.262 118.567 550.687 118.819 549.364 118.819C547.726 118.819 546.529 118.567 545.647 117.937C544.765 117.37 544.324 116.299 544.198 114.724C541.237 117.622 537.583 119.071 533.236 119.071C530.149 119.071 527.692 118.252 525.865 116.614C523.975 114.976 523.093 112.834 523.093 110.062C523.093 107.668 523.786 105.589 525.235 103.951C526.621 102.313 528.322 101.116 530.275 100.423C532.165 99.793 534.37 99.352 536.764 99.163C536.827 99.163 537.457 99.163 538.591 99.1C539.725 99.037 540.67 98.974 541.426 98.911C542.119 98.848 542.938 98.722 543.946 98.533C544.891 98.407 545.584 98.155 546.088 97.84C547.222 97.21 547.789 95.887 547.789 93.997C547.789 91.351 545.836 89.965 541.93 89.965C537.583 89.965 535 91.792 534.118 95.32H527.314ZM546.34 101.935C545.899 102.313 545.206 102.565 544.261 102.817C543.316 103.069 542.497 103.258 541.867 103.321C541.237 103.447 540.292 103.51 539.032 103.636L537.205 103.762C532.606 104.203 530.338 106.093 530.338 109.369C530.338 110.881 530.779 112.015 531.787 112.834C532.795 113.653 534.181 114.031 535.945 114.031C538.465 114.031 540.418 113.401 541.93 112.078C543.442 110.755 544.387 109.18 544.891 107.353L546.34 101.935ZM582.607 107.227C581.725 107.227 580.591 107.101 579.331 106.786C578.008 106.534 576.937 106.219 576.055 105.904C575.173 105.652 573.976 105.211 572.338 104.581C570.7 104.014 569.692 103.636 569.314 103.51C567.928 103.132 566.983 102.88 566.479 102.88C565.345 102.88 564.463 103.321 563.833 104.203C563.203 105.085 562.762 106.156 562.636 107.29H557.722C557.848 105.904 558.1 104.581 558.478 103.321C558.856 102.061 559.423 100.864 560.116 99.73C560.809 98.596 561.754 97.714 562.951 97.084C564.148 96.454 565.534 96.076 567.172 96.076C567.802 96.076 568.558 96.202 569.377 96.328C570.196 96.454 570.889 96.643 571.393 96.769C571.897 96.958 572.653 97.21 573.661 97.525C574.606 97.903 575.299 98.092 575.677 98.218C579.835 99.604 582.418 100.297 583.552 100.297C585.568 100.297 586.828 98.911 587.332 96.076H592.246C591.364 103.51 588.151 107.227 582.607 107.227Z"/>
</g>
</svg>
