<svg xmlns="http://www.w3.org/2000/svg" width="596" height="133" viewBox="0 0 596 133"><path d="M6.576 3.599c.734.846.677 1.13.953 2.263-.365.104-.905.483-1.162.836L1.305 1.291c1.87-.189 4.103.9 5.271 2.308M9.707 7.25a1.606 1.606 0 0 1-.003 2.285 1.645 1.645 0 0 1-2.292-.01 1.6 1.6 0 0 1 .01-2.275c.628-.638 1.65-.625 2.285 0m.76-5.897c.196.512.304 1.711 1.041 2.523-.988.852-1.207 1.306-1.534 2.12a2.5 2.5 0 0 0-1.041-.337zm21.768-.208L28.07 2.431c-6.563 2.333-8.923 7.206-13.867 6.925-1.051-.098-1.943-.312-2.81-.795.041-.319-.067-.701-.165-1.013 4.2-2.472 13.241-5.3 21.005-6.402m-18.701 12.15-3.255-2.687a311 311 0 0 1 3.28-.056c-.4 1.698-.025 2.742-.025 2.742M3.941 26.7C1.12 33.946 1.61 34.188.819 37.2c.807-10.139 3.862-18.504 6.802-26.165 0 0 .686.209 1.032.136.61.698.743 1.708.743 1.708 1.518 4.943-3.239 8.112-5.455 13.822M1.397 10.193C2.093 9.905 5.744 8.7 5.744 8.7l.28.846c-1.286.764-1.928 1.77-1.953 1.944-.248-.022-1.683-1.092-2.674-1.297m.918-3.599C1.985 8.014.8 9.391 0 10.562c1.023.492 2.315 1.159 3.191 1.929C1.258 15.4.568 16.878.245 20.385l.257 18.178c1.857-5.467 3.988-11.502 7.043-15.956.864-1.265 1.038-1.597 1.524-2.345.607-.928 1.896-2.81 1.845-6.02 1.102-.227 2.43.057 3.703.158-.159-1.376-.33-1.644.025-3.895 5.29-.211 6.313-3.415 12.007-6.347 2.616-1.351 3.709-1.9 7.157-3.176-10.698.038-15.43-1.698-21.4 2.282-.692-.906-1.057-2.178-1.517-3.257-.842.662-2.661 1.85-4.036 2.193C5.278.663 2.94-.205.235.041c-.387 2.172.375 5.086 2.08 6.553M6.576 112.31c.734-.849.677-1.124.953-2.263-.365-.098-.905-.49-1.162-.84l-5.062 5.417c1.87.176 4.103-.903 5.271-2.314m3.131-3.662a1.59 1.59 0 0 0-.003-2.272 1.627 1.627 0 0 0-2.292.016 1.577 1.577 0 0 0 .01 2.256 1.594 1.594 0 0 0 2.285 0m.76 5.897c.196-.505.304-1.698 1.041-2.525-.988-.834-1.207-1.288-1.534-2.106-.34.193-.692.3-1.041.332zm21.768.224-4.164-1.288c-6.563-2.339-8.923-7.219-13.867-6.929-1.051.105-1.943.307-2.81.79.041.318-.067.7-.165 1.019 4.2 2.465 13.241 5.306 21.005 6.408m-18.701-12.156-3.255 2.686c2.258.054 3.28.06 3.28.06-.4-1.698-.025-2.746-.025-2.746m-9.593-13.4c-2.82-7.25-2.33-7.486-3.121-10.495.807 10.127 3.862 18.488 6.802 26.158 0 0 .686-.214 1.032-.145.61-.697.743-1.704.743-1.704 1.518-4.937-3.239-8.119-5.455-13.813M1.397 105.71c.696.293 4.347 1.512 4.347 1.512l.28-.862c-1.286-.767-1.928-1.771-1.953-1.935-.248.019-1.683 1.083-2.674 1.285m.918 3.604C1.985 107.887.8 106.51 0 105.352c1.023-.496 2.315-1.177 3.191-1.941-1.933-2.917-2.623-4.375-2.946-7.885L.502 77.34c1.857 5.464 3.988 11.503 7.043 15.963.864 1.269 1.038 1.594 1.524 2.345.607.915 1.896 2.797 1.845 6.013 1.102.23 2.43-.06 3.703-.145-.159 1.376-.33 1.638.025 3.879 5.29.212 6.313 3.425 12.007 6.364 2.616 1.341 3.709 1.884 7.157 3.162-10.698-.041-15.43 1.705-21.4-2.285-.692.916-1.057 2.191-1.517 3.273-.842-.672-2.661-1.852-4.036-2.215-1.575 1.556-3.912 2.411-6.618 2.174-.387-2.174.375-5.094 2.08-6.556M94.427 3.693c-.737.853-.674 1.127-.95 2.273.362.101.915.486 1.162.83l5.072-5.413c-1.89-.18-4.11.903-5.284 2.31m-3.128 3.665a1.6 1.6 0 0 0 .01 2.28c.628.621 1.648.611 2.289-.02a1.6 1.6 0 0 0-.003-2.273c-.648-.628-1.674-.628-2.296.013m-.76-5.896c-.2.505-.298 1.701-1.047 2.51.99.848 1.213 1.303 1.537 2.124.343-.2.692-.3 1.048-.344zm-21.76-.215 4.153 1.275c6.567 2.346 8.926 7.223 13.867 6.945 1.058-.117 1.934-.322 2.807-.802-.031-.335.077-.7.169-1.01-4.198-2.494-13.24-5.316-20.997-6.408M87.475 13.39l3.248-2.683c-2.245-.047-3.28-.063-3.28-.063.403 1.701.031 2.746.031 2.746m9.59 13.412c2.823 7.238 2.32 7.488 3.134 10.486-.823-10.126-3.874-18.497-6.818-26.161 0 0-.68.208-1.035.148-.597.698-.74 1.699-.74 1.699-1.521 4.94 3.239 8.109 5.459 13.828m2.55-16.508c-.712-.284-4.354-1.496-4.354-1.496l-.273.852c1.28.76 1.924 1.758 1.94 1.935.254-.022 1.696-1.092 2.686-1.291m-.928-3.605c.334 1.427 1.524 2.803 2.312 3.97-1.016.503-2.312 1.172-3.198 1.933 1.95 2.92 2.649 4.378 2.957 7.885l-.254 18.184c-1.855-5.467-3.992-11.499-7.05-15.962-.857-1.266-1.035-1.591-1.518-2.346-.61-.912-1.892-2.8-1.851-6.01-1.099-.23-2.426.057-3.7.146.16-1.373.334-1.642-.028-3.895-5.29-.196-6.304-3.413-12.004-6.345-2.61-1.345-3.715-1.89-7.16-3.163 10.717.035 15.433-1.71 21.4 2.28.701-.916 1.06-2.182 1.514-3.258.851.656 2.664 1.84 4.046 2.197 1.581-1.54 3.902-2.412 6.624-2.163.374 2.163-.384 5.086-2.09 6.547m-4.261 105.712c-.737-.843-.674-1.121-.95-2.264.362-.101.915-.483 1.162-.836l5.072 5.426c-1.89.17-4.11-.916-5.284-2.326m-3.128-3.646a1.61 1.61 0 0 1 .01-2.289c.628-.622 1.648-.609 2.289 0a1.62 1.62 0 0 1-.003 2.289c-.648.628-1.674.628-2.296 0m-.76 5.89c-.2-.515-.298-1.708-1.047-2.529.99-.827 1.213-1.291 1.537-2.102.343.19.692.291 1.048.319zm-21.76.211 4.153-1.281c6.567-2.342 8.926-7.216 13.867-6.929 1.058.111 1.934.303 2.807.799-.031.315.077.688.169 1.007-4.198 2.478-13.24 5.309-20.997 6.404m18.697-12.149 3.248 2.689c-2.245.044-3.28.067-3.28.067.403-1.708.031-2.756.031-2.756m9.59-13.4c2.823-7.24 2.32-7.49 3.134-10.501-.823 10.138-3.874 18.49-6.818 26.161 0 0-.68-.202-1.035-.133-.597-.713-.74-1.707-.74-1.707-1.521-4.947 3.239-8.122 5.459-13.82m2.55 16.5c-.712.293-4.354 1.505-4.354 1.505l-.273-.862c1.28-.751 1.924-1.761 1.94-1.922.254.019 1.696 1.08 2.686 1.279m-.928 3.604c.334-1.433 1.524-2.8 2.312-3.958-1.016-.505-2.312-1.181-3.198-1.935 1.95-2.92 2.649-4.372 2.957-7.897l-.254-18.179c-1.855 5.455-3.992 11.503-7.05 15.953-.857 1.27-1.035 1.594-1.518 2.352-.61.912-1.892 2.803-1.851 6.022-1.099.224-2.426-.072-3.7-.167.16 1.38.334 1.645-.028 3.895-5.29.212-6.304 3.416-12.004 6.364-2.61 1.351-3.715 1.89-7.16 3.153 10.717-.032 15.433 1.708 21.4-2.279.701.919 1.06 2.188 1.514 3.264.851-.657 2.664-1.847 4.046-2.207 1.581 1.55 3.902 2.406 6.624 2.169.374-2.169-.384-5.079-2.09-6.55M85.024 88.616c5.446-8.548 8.666-19.166 8.666-30.675 0-11.518-3.22-22.133-8.666-30.681V23.4c6.77 9.296 10.85 21.344 10.85 34.541 0 13.185-4.08 25.233-10.85 34.53zm-19.498 19.555v-2.383c3.189-1.396 6.196-3.226 8.978-5.417v2.746c-2.801 2.042-5.808 3.757-8.978 5.054m-15.02 2.995c-1.511 0-3-.088-4.483-.255v-2.216a37 37 0 0 0 4.483.274c1.518 0 3.02-.101 4.494-.274v2.216a40 40 0 0 1-4.494.255m-23.978-8.03v-2.755c2.785 2.2 5.79 4.034 8.98 5.416v2.39a42.6 42.6 0 0 1-8.98-5.051M5.122 57.941c0-13.207 4.093-25.28 10.883-34.595v3.88C10.549 35.77 7.31 46.403 7.31 57.94c0 11.525 3.239 22.175 8.695 30.71v3.876C9.215 83.215 5.122 71.135 5.122 57.941M35.508 7.69v2.383a40.8 40.8 0 0 0-8.98 5.42V12.74a42.7 42.7 0 0 1 8.98-5.05m14.998-2.977c1.518 0 3.02.079 4.494.256V7.18a37.7 37.7 0 0 0-8.977 0V4.97a38 38 0 0 1 4.483-.256m23.998 8.055v2.743a40.8 40.8 0 0 0-8.978-5.42V7.69a42.6 42.6 0 0 1 8.978 5.078m10.52 17.79c4.414 7.822 6.98 17.241 6.98 27.383 0 10.126-2.566 19.536-6.98 27.386zM65.526 11.964a39.8 39.8 0 0 1 8.978 5.748V98.17c-2.763 2.323-5.777 4.264-8.978 5.735zM46.024 8.92a36 36 0 0 1 4.483-.288c1.518 0 3.02.101 4.494.288v98.028c-1.474.19-2.976.294-4.494.294-1.511 0-3.01-.098-4.483-.294zm-19.495 8.768c2.763-2.332 5.77-4.264 8.98-5.744v91.983c-3.21-1.483-6.217-3.415-8.98-5.725zM16.005 85.374c-4.433-7.834-7.018-17.272-7.018-27.433 0-10.16 2.585-19.595 7.018-27.433zM50.506.591C23.172.59 1.023 26.269 1.023 57.94s22.149 57.341 49.483 57.341c27.322 0 49.468-25.672 49.468-57.34C99.974 26.268 77.828.59 50.506.59m121.783 30.155L172.226 55h-6.237l-.945-5.103c-3.339 4.158-7.812 6.174-13.482 6.174-6.237 0-11.34-2.142-15.246-6.489q-5.859-6.426-5.859-16.821c0-6.93 2.079-12.537 6.174-16.947q6.237-6.615 15.876-6.615c5.166 0 9.45 1.449 12.978 4.347s5.607 6.678 6.174 11.34h-9.513c-.441-2.331-1.512-4.158-3.276-5.481-1.701-1.26-3.843-1.953-6.426-1.953-3.78 0-6.678 1.386-8.82 4.095s-3.213 6.426-3.213 11.214c0 4.914 1.071 8.694 3.213 11.403s5.229 4.032 9.135 4.032c3.024 0 5.544-.882 7.56-2.772 1.953-1.89 3.024-4.347 3.15-7.371h-10.017v-7.308zm36.527 14.175c-1.008 3.528-2.898 6.237-5.607 8.127-2.709 1.953-5.922 2.898-9.702 2.898-4.977 0-9.009-1.512-12.033-4.662-3.024-3.087-4.536-7.182-4.536-12.348 0-5.04 1.512-9.198 4.599-12.474q4.536-4.914 11.718-4.914c4.914 0 8.82 1.701 11.718 5.04s4.347 7.875 4.347 13.545v.882h-23.31c0 2.835.693 4.977 2.016 6.426 1.323 1.512 3.213 2.205 5.607 2.205q4.725 0 6.615-4.725zm-8.631-9.576c-.189-2.142-.882-3.843-2.079-5.229q-1.701-2.079-4.914-2.079c-1.953 0-3.591.693-4.914 1.953-1.26 1.323-2.079 3.087-2.331 5.355zM244.109 55h-9.072V36.037c0-2.268-.378-4.032-1.134-5.229s-2.268-1.827-4.41-1.827c-4.725 0-7.056 2.898-7.056 8.568V55h-8.883V22.492h8.505v4.536c2.646-3.591 6.237-5.418 10.773-5.418 3.465 0 6.237 1.008 8.253 3.024s3.024 4.914 3.024 8.631zm36.337-10.08c-1.008 3.528-2.898 6.237-5.607 8.127-2.709 1.953-5.922 2.898-9.702 2.898-4.977 0-9.009-1.512-12.033-4.662-3.024-3.087-4.536-7.182-4.536-12.348 0-5.04 1.512-9.198 4.599-12.474q4.536-4.914 11.718-4.914c4.914 0 8.82 1.701 11.718 5.04s4.347 7.875 4.347 13.545v.882h-23.31c0 2.835.693 4.977 2.016 6.426 1.323 1.512 3.213 2.205 5.607 2.205q4.725 0 6.615-4.725zm-8.631-9.576c-.189-2.142-.882-3.843-2.079-5.229q-1.701-2.079-4.914-2.079c-1.953 0-3.591.693-4.914 1.953-1.26 1.323-2.079 3.087-2.331 5.355zm34.412-13.419v8.253c-1.26-.252-2.457-.378-3.465-.378-2.961 0-5.103.945-6.489 2.835s-2.079 4.347-2.079 7.497V55h-8.946V22.492h8.505v5.985c2.142-4.473 5.607-6.741 10.521-6.741.378 0 1.071.063 1.953.189M338.903 55h-9.135a16.3 16.3 0 0 1-.63-3.15c-2.709 2.772-6.237 4.095-10.521 4.095-3.591 0-6.426-.819-8.505-2.583-2.016-1.764-3.087-4.158-3.087-7.245 0-1.386.189-2.583.567-3.654a6.75 6.75 0 0 1 1.764-2.646 25 25 0 0 1 2.331-1.764q1.134-.662 3.024-1.134c1.323-.252 2.394-.504 3.15-.63.819-.126 1.953-.315 3.402-.504 3.15-.378 5.229-.819 6.3-1.323 1.071-.441 1.638-1.323 1.638-2.583q0-4.347-5.859-4.347-3.119 0-4.536 1.134c-1.008.756-1.638 2.016-1.89 3.843h-8.379c.504-7.308 5.481-10.962 15.057-10.962q14.175 0 14.175 10.584V46.18c0 4.158.378 7.056 1.134 8.82m-9.828-15.813c-1.008.63-3.15 1.26-6.3 1.764-2.646.378-4.347.945-5.166 1.575-.882.756-1.386 1.89-1.386 3.276 0 1.323.441 2.394 1.323 3.15q1.323 1.134 3.591 1.134c2.394 0 4.347-.63 5.796-1.89s2.142-3.087 2.142-5.355zm24.017-29.043V55h-8.946V10.144zm15.297 0v7.56h-8.946v-7.56zm0 12.348V55h-8.946V22.492zm23.991 0v6.111h-6.615v15.309c0 .945 0 1.638.063 2.079 0 .441.189.882.441 1.386.252.441.63.756 1.134.882q.756.189 2.268.189c1.071 0 1.953 0 2.709-.126v6.804a64 64 0 0 1-5.418.252c-3.906 0-6.615-.63-8.001-2.016q-2.079-2.079-2.079-7.938V28.54h-5.418v-6.048h5.418v-9.828h8.883v9.828zM425.932 55h-9.135a16.3 16.3 0 0 1-.63-3.15c-2.709 2.772-6.237 4.095-10.521 4.095-3.591 0-6.426-.819-8.505-2.583-2.016-1.764-3.087-4.158-3.087-7.245 0-1.386.189-2.583.567-3.654a6.75 6.75 0 0 1 1.764-2.646 25 25 0 0 1 2.331-1.764q1.134-.662 3.024-1.134c1.323-.252 2.394-.504 3.15-.63.819-.126 1.953-.315 3.402-.504 3.15-.378 5.229-.819 6.3-1.323 1.071-.441 1.638-1.323 1.638-2.583q0-4.347-5.859-4.347-3.119 0-4.536 1.134c-1.008.756-1.638 2.016-1.89 3.843h-8.379c.504-7.308 5.481-10.962 15.057-10.962q14.175 0 14.175 10.584V46.18c0 4.158.378 7.056 1.134 8.82m-9.828-15.813c-1.008.63-3.15 1.26-6.3 1.764-2.646.378-4.347.945-5.166 1.575-.882.756-1.386 1.89-1.386 3.276 0 1.323.441 2.394 1.323 3.15q1.323 1.134 3.591 1.134c2.394 0 4.347-.63 5.796-1.89s2.142-3.087 2.142-5.355zm32.711-16.695v6.111H442.2v15.309c0 .945 0 1.638.063 2.079 0 .441.189.882.441 1.386.252.441.63.756 1.134.882q.756.189 2.268.189c1.071 0 1.953 0 2.709-.126v6.804a64 64 0 0 1-5.418.252c-3.906 0-6.615-.63-8.001-2.016q-2.079-2.079-2.079-7.938V28.54h-5.418v-6.048h5.418v-9.828h8.883v9.828zM163.091 118h-8.505v-4.158c-2.142 3.402-5.418 5.04-9.828 5.04-4.473 0-8.064-1.512-10.71-4.662s-3.969-7.308-3.969-12.6c0-5.103 1.26-9.198 3.843-12.285 2.583-3.15 6.048-4.662 10.395-4.662 2.016 0 3.906.378 5.67 1.26 1.764.819 3.213 2.016 4.221 3.591v-16.38h8.883zm-8.631-16.317c0-3.15-.63-5.544-2.016-7.308q-2.079-2.646-5.67-2.646-3.686 0-5.67 2.646c-1.386 1.764-2.016 4.158-2.016 7.308s.63 5.607 2.016 7.371 3.276 2.709 5.67 2.709q3.686 0 5.67-2.646c1.386-1.764 2.016-4.221 2.016-7.434m45.066 6.237c-1.008 3.528-2.898 6.237-5.607 8.127-2.709 1.953-5.922 2.898-9.702 2.898-4.977 0-9.009-1.512-12.033-4.662-3.024-3.087-4.536-7.182-4.536-12.348 0-5.04 1.512-9.198 4.599-12.474q4.536-4.914 11.718-4.914c4.914 0 8.82 1.701 11.718 5.04s4.347 7.875 4.347 13.545v.882h-23.31c0 2.835.693 4.977 2.016 6.426 1.323 1.512 3.213 2.205 5.607 2.205q4.725 0 6.615-4.725zm-8.631-9.576c-.189-2.142-.882-3.843-2.079-5.229q-1.701-2.079-4.914-2.079c-1.953 0-3.591.693-4.914 1.953-1.26 1.323-2.079 3.087-2.331 5.355zm69.649 2.583c-.441 5.544-2.394 9.954-5.922 13.23q-5.292 4.914-13.608 4.914c-6.363 0-11.466-2.142-15.246-6.426-3.843-4.284-5.733-9.954-5.733-17.073 0-4.284.819-8.127 2.457-11.655q2.457-5.292 7.371-8.505c3.276-2.142 7.119-3.276 11.529-3.276 4.725 0 8.883 1.323 12.411 3.969s5.607 6.426 6.363 11.34h-7.812c-.567-2.646-1.827-4.788-3.78-6.3-2.016-1.512-4.41-2.331-7.308-2.331-3.024 0-5.544.882-7.623 2.52-2.079 1.701-3.528 3.78-4.41 6.237s-1.26 5.103-1.26 8.001c0 2.205.252 4.284.756 6.174a19.3 19.3 0 0 0 2.268 5.355c1.008 1.638 2.331 2.898 4.095 3.843 1.764 1.008 3.78 1.449 6.111 1.449 6.678 0 10.458-3.78 11.466-11.466zm4.83-5.418c.756-7.308 5.481-11.025 14.238-11.025 4.032 0 7.308.819 9.702 2.394 2.394 1.638 3.654 4.095 3.654 7.434v16.506c0 .945.063 1.575.315 1.89.252.378.693.504 1.386.504.504 0 1.008 0 1.638-.126v5.04c-1.89.504-3.402.693-4.662.693-3.087 0-4.851-1.26-5.292-3.906-2.772 2.646-6.552 3.906-11.403 3.906-3.402 0-6.048-.819-8.001-2.583-2.016-1.764-2.961-4.095-2.961-7.119 0-.882.063-1.764.315-2.583a16 16 0 0 1 .693-2.079c.252-.567.693-1.134 1.323-1.638s1.134-.882 1.512-1.26c.378-.315 1.071-.63 1.953-.945.882-.252 1.575-.504 2.016-.63a21 21 0 0 1 2.331-.504c1.071-.126 1.764-.252 2.142-.315a39 39 0 0 1 2.268-.315c2.52-.315 4.284-.567 5.229-.819.882-.252 1.512-.567 1.89-1.071.252-.315.441-1.071.441-2.331 0-3.276-2.268-4.914-6.678-4.914-2.394 0-4.095.441-5.166 1.323-1.134.882-1.827 2.394-2.079 4.473zm20.664 6.174c-.567.315-1.197.567-1.89.819-.756.252-1.323.378-1.764.441s-1.134.126-2.079.252-1.575.252-1.827.252q-1.323.189-2.079.378c-.504.126-1.134.252-1.89.504q-1.134.378-1.701.945c-.378.378-.756.819-1.008 1.449-.315.63-.441 1.323-.441 2.142q0 2.362 1.512 3.591c1.008.882 2.457 1.26 4.347 1.26 3.15 0 5.607-.819 7.371-2.583.945-.945 1.449-2.835 1.449-5.607zm29.589-16.191v5.229h-6.552v17.136c0 1.008 0 1.764.063 2.142q0 .567.378 1.323c.189.504.567.819 1.071.945.504.189 1.26.252 2.205.252 1.134 0 2.079 0 2.835-.126v5.67c-1.449.189-3.087.252-4.851.252-1.26 0-2.394-.063-3.339-.252a13 13 0 0 1-2.331-.693c-.63-.252-1.197-.63-1.575-1.26-.441-.63-.756-1.134-1.008-1.512s-.378-1.134-.504-2.142-.126-1.764-.126-2.268V90.721h-5.418v-5.229h5.418v-9.765h7.182v9.765zm42.904-12.348v26.964c0 6.426-1.575 11.214-4.662 14.238s-7.875 4.536-14.427 4.536c-6.678 0-11.529-1.512-14.679-4.599s-4.662-7.875-4.662-14.301V73.144h9.828v26.838q0 5.481 2.079 8.127t7.56 2.646q5.292 0 7.182-2.646c1.26-1.764 1.953-4.473 1.953-8.127V73.144zm3.541 12.348h9.513l6.048 22.113 5.481-22.113h8.631l5.67 21.987 6.048-21.987h9.135L402.329 118h-9.198l-5.796-21.861L381.728 118h-9.261zm92.576-12.348v26.964c0 6.426-1.575 11.214-4.662 14.238s-7.875 4.536-14.427 4.536c-6.678 0-11.529-1.512-14.679-4.599s-4.662-7.875-4.662-14.301V73.144h9.828v26.838q0 5.481 2.079 8.127t7.56 2.646q5.292 0 7.182-2.646c1.26-1.764 1.953-4.473 1.953-8.127V73.144zm16.015 12.348-1.071 4.914c3.024-3.78 6.867-5.733 11.529-5.733 2.898 0 5.166.756 6.93 2.268s2.646 3.465 2.646 5.922c0 1.449-.252 3.276-.756 5.544L485.846 118h-7.308l4.158-19.467c.252-1.26.441-2.52.441-3.78 0-1.323-.441-2.331-1.323-3.087-.882-.693-2.079-1.071-3.591-1.071-2.898 0-5.229 1.008-6.93 2.898s-2.835 4.347-3.465 7.308L464.174 118h-7.182l6.93-32.508zm55.391 0-20.223 36.477c-1.701 3.087-3.528 5.292-5.418 6.552-1.89 1.323-4.221 1.953-6.867 1.953-1.512 0-3.024-.126-4.41-.504l1.26-5.859a12 12 0 0 0 3.528.504c.756 0 1.512-.189 2.142-.567s1.134-.882 1.638-1.575c.441-.693.756-1.26 1.008-1.701.189-.441.441-1.008.693-1.701l1.197-3.087-5.481-30.492h7.434l1.827 12.537c.756 5.04 1.26 9.261 1.575 12.663 1.386-3.465 3.024-6.993 4.851-10.521l7.56-14.679zm1.26 9.828q1.984-10.584 14.931-10.584c3.843 0 6.867.756 9.135 2.142 2.205 1.449 3.339 3.402 3.339 5.859 0 1.512-.315 3.402-.819 5.733l-2.205 9.828c-.504 2.016-.693 3.213-.693 3.591 0 .882.441 1.26 1.449 1.26.567 0 1.512-.063 2.772-.315l-1.134 5.229q-2.74.756-4.725.756c-1.638 0-2.835-.252-3.717-.882-.882-.567-1.323-1.638-1.449-3.213q-4.442 4.347-10.962 4.347-4.63 0-7.371-2.457c-1.89-1.638-2.772-3.78-2.772-6.552 0-2.394.693-4.473 2.142-6.111 1.386-1.638 3.087-2.835 5.04-3.528 1.89-.63 4.095-1.071 6.489-1.26.063 0 .693 0 1.827-.063q1.701-.095 2.835-.189c.693-.063 1.512-.189 2.52-.378.945-.126 1.638-.378 2.142-.693 1.134-.63 1.701-1.953 1.701-3.843 0-2.646-1.953-4.032-5.859-4.032-4.347 0-6.93 1.827-7.812 5.355zm19.026 6.615c-.441.378-1.134.63-2.079.882s-1.764.441-2.394.504c-.63.126-1.575.189-2.835.315l-1.827.126c-4.599.441-6.867 2.331-6.867 5.607 0 1.512.441 2.646 1.449 3.465s2.394 1.197 4.158 1.197c2.52 0 4.473-.63 5.985-1.953s2.457-2.898 2.961-4.725zm36.267 5.292c-.882 0-2.016-.126-3.276-.441a22 22 0 0 1-3.276-.882c-.882-.252-2.079-.693-3.717-1.323-1.638-.567-2.646-.945-3.024-1.071-1.386-.378-2.331-.63-2.835-.63q-1.701 0-2.646 1.323a6.6 6.6 0 0 0-1.197 3.087h-4.914q.189-2.079.756-3.969c.378-1.26.945-2.457 1.638-3.591a7.17 7.17 0 0 1 2.835-2.646c1.197-.63 2.583-1.008 4.221-1.008.63 0 1.386.126 2.205.252s1.512.315 2.016.441q.756.284 2.268.756c.945.378 1.638.567 2.016.693 4.158 1.386 6.741 2.079 7.875 2.079 2.016 0 3.276-1.386 3.78-4.221h4.914q-1.323 11.151-9.639 11.151" opacity=".6"/></svg>