<svg xmlns="http://www.w3.org/2000/svg" width="355" height="120" viewBox="0 0 355 120"><path fill="var(--vi-body-color)" d="M261.192 3c-3.265 0-6.522 1.214-9.019 3.65a12.28 12.28 0 0 0-3.734 8.445v.735c.094 3.06 1.338 6.097 3.734 8.439l35.565 34.726-35.565 34.733c-2.396 2.342-3.64 5.379-3.734 8.439v.738a12.27 12.27 0 0 0 3.734 8.439 12.86 12.86 0 0 0 8.704 3.646h.635a12.84 12.84 0 0 0 8.698-3.646l.845-.816h-.006a12 12 0 0 1-1.347-1.894q-.416-.704-.723-1.457a13 13 0 0 1-.459-1.289c0-.01 0-.016-.01-.026 0-.007 0-.023-.007-.029a12.15 12.15 0 0 1 1.121-9.378l.006-.01c.007-.016.017-.022.023-.039.01-.022.026-.038.032-.061.007 0 .007-.01.007-.01.081-.133.159-.265.243-.398.039-.055.071-.11.11-.165a12.4 12.4 0 0 1 1.69-2.044l8.533-8.335 5.693-5.56 8.494-8.29 12.846-12.548-6.998-6.826-14.342-14.005-5.693-5.557-8.533-8.338c-.162-.165-.327-.327-.486-.5a13 13 0 0 1-1.415-1.87c-.21-.338-.398-.69-.573-1.044h-.006c-.007-.029-.023-.055-.033-.077-.006-.007-.006-.016-.016-.023a.2.2 0 0 0-.023-.055 12.18 12.18 0 0 1-.547-8.963c.007-.017.007-.033.016-.049v-.006a13 13 0 0 1 .719-1.723c.065-.126.133-.243.204-.366.408-.745.901-1.457 1.474-2.124h.006l-.845-.82C267.72 4.214 264.456 3 261.192 3" opacity=".25"/><path fill="var(--vi-body-color)" d="M280.914 3.031h-.463c-3.161.055-6.302 1.26-8.721 3.624l-.68.816v.006a13 13 0 0 0-1.479 2.115c-.072.126-.133.25-.195.375a12 12 0 0 0-.722 1.713v.01c-.006.016-.016.03-.023.055a12.5 12.5 0 0 0-.602 3.669v.243a12.1 12.1 0 0 0 1.15 5.042c.016.016.022.039.032.055 0 .01.007.016.007.022.016.026.026.056.038.082a12.8 12.8 0 0 0 1.998 2.91q.234.256.476.503l8.543 8.335 5.689 5.56 14.342 14.002 6.998 6.836-12.846 12.541-8.494 8.297-5.689 5.556-8.543 8.332a12.6 12.6 0 0 0-1.69 2.044c-.032.051-.071.106-.1.162-.088.132-.165.268-.243.401-.01 0-.01.007-.01.007l-.039.061c-.006.016-.016.026-.022.039 0 0 0 .01-.007.016a12.1 12.1 0 0 0-1.59 5.887v.243c.016 1.088.172 2.186.476 3.242 0 .016.01.022.01.038 0 .007.006.017.006.017.127.437.282.867.454 1.298a14 14 0 0 0 .728 1.448c.386.667.829 1.301 1.347 1.894l.68.822a12.92 12.92 0 0 0 8.714 3.65h.619c2.85-.071 5.651-1.121 7.947-3.047l-.761-.603a12.26 12.26 0 0 1 0-17.619l35.555-34.726-35.555-34.733a12.257 12.257 0 0 1 0-17.616l.761-.619a12.94 12.94 0 0 0-8.096-3.005" opacity=".4"/><path fill="var(--vi-body-color)" d="m350.868 50.19-44.58-43.54c-4.744-4.634-12.27-4.8-17.28-.603l-.757.602a12.25 12.25 0 0 0 0 17.623l35.562 34.726-35.562 34.734a12.237 12.237 0 0 0 0 17.612l.757.612c2.39 1.995 5.308 3.044 8.261 3.044 3.264 0 6.528-1.221 9.019-3.656l44.58-43.54a12.254 12.254 0 0 0 0-17.614M31.694 22.942l-8.379.063c-.252-1.638-.819-2.835-1.827-3.465-1.008-.693-2.457-1.008-4.347-1.008-1.575 0-2.835.252-3.717.819s-1.323 1.386-1.323 2.394q0 1.701 1.512 2.457c1.008.441 2.835.945 5.418 1.512.504.063.82.126 1.008.189 1.512.252 2.772.504 3.654.756s2.016.63 3.276 1.134c1.323.504 2.331 1.134 3.024 1.764.756.63 1.386 1.512 1.89 2.583.567 1.134.82 2.394.82 3.78 0 3.402-1.324 6.111-3.97 8.064-2.646 2.016-6.237 2.961-10.899 2.961-4.41 0-8-.945-10.899-2.835q-4.252-2.835-4.347-8.694h8.505c.315 3.654 2.646 5.418 6.93 5.418 1.827 0 3.276-.315 4.347-1.071s1.575-1.701 1.575-2.961c0-1.197-.44-2.079-1.449-2.583-.945-.504-2.709-1.008-5.355-1.638-.189 0-.378-.063-.504-.126-.252-.063-.945-.189-1.953-.441-1.008-.189-1.7-.315-2.079-.441-.378-.126-1.07-.315-1.953-.567-.882-.252-1.575-.441-2.016-.693-.378-.252-.945-.504-1.638-.882s-1.197-.756-1.575-1.197a18 18 0 0 1-1.07-1.449c-.379-.567-.694-1.197-.82-1.953a13 13 0 0 1-.189-2.331c0-3.15 1.197-5.607 3.717-7.371 2.457-1.701 5.985-2.583 10.521-2.583 4.032 0 7.371.882 10.017 2.52 2.583 1.701 3.97 4.347 4.095 7.875M68.62 35.92c-1.008 3.528-2.898 6.237-5.607 8.127-2.709 1.953-5.922 2.898-9.702 2.898-4.977 0-9.009-1.512-12.033-4.662-3.024-3.087-4.536-7.182-4.536-12.348 0-5.04 1.512-9.198 4.6-12.474q4.535-4.914 11.717-4.914c4.914 0 8.82 1.701 11.718 5.04s4.347 7.875 4.347 13.545v.882h-23.31c0 2.835.693 4.977 2.016 6.426 1.323 1.512 3.213 2.205 5.607 2.205q4.725 0 6.615-4.725zm-8.63-9.576c-.19-2.142-.883-3.843-2.08-5.229q-1.701-2.079-4.914-2.079c-1.953 0-3.59.693-4.914 1.953-1.26 1.323-2.079 3.087-2.33 5.355zM124.324 46h-9.072V26.596c0-2.142-.378-3.78-1.008-4.914-.693-1.134-2.079-1.764-4.158-1.764-4.158 0-6.237 2.646-6.237 7.812V46h-8.946V26.218c0-2.016-.378-3.528-1.008-4.662-.693-1.134-2.016-1.701-3.906-1.701-4.347 0-6.49 2.835-6.49 8.505V46h-8.945V13.492h8.505v4.473c2.52-3.528 5.985-5.355 10.332-5.355 4.473 0 7.56 1.827 9.198 5.355 2.583-3.528 6.111-5.355 10.647-5.355 3.528 0 6.3 1.071 8.19 3.15s2.898 4.851 2.898 8.379zm15.451-32.508v4.032c2.331-3.276 5.67-4.914 10.08-4.914 4.347 0 7.875 1.575 10.521 4.725s3.969 7.371 3.969 12.6c0 5.103-1.323 9.198-3.906 12.285s-5.985 4.599-10.206 4.599c-4.41 0-7.749-1.575-10.017-4.851v15.561h-8.883V13.492zm7.875 6.3c-2.457 0-4.347.882-5.733 2.646s-2.016 4.221-2.016 7.371q0 4.725 2.079 7.371c1.386 1.764 3.276 2.646 5.733 2.646 2.394 0 4.221-.882 5.607-2.646s2.079-4.158 2.079-7.245c0-3.15-.693-5.607-2.079-7.434-1.386-1.764-3.276-2.709-5.67-2.709m43.301-6.867v8.253c-1.26-.252-2.457-.378-3.465-.378-2.961 0-5.103.945-6.489 2.835s-2.079 4.347-2.079 7.497V46h-8.946V13.492h8.505v5.985c2.142-4.473 5.607-6.741 10.521-6.741.378 0 1.071.063 1.953.189M223.78 35.92c-1.008 3.528-2.898 6.237-5.607 8.127-2.709 1.953-5.922 2.898-9.702 2.898-4.977 0-9.009-1.512-12.033-4.662-3.024-3.087-4.536-7.182-4.536-12.348 0-5.04 1.512-9.198 4.599-12.474q4.536-4.914 11.718-4.914c4.914 0 8.82 1.701 11.718 5.04s4.347 7.875 4.347 13.545v.882h-23.31c0 2.835.693 4.977 2.016 6.426 1.323 1.512 3.213 2.205 5.607 2.205q4.725 0 6.615-4.725zm-8.631-9.576c-.189-2.142-.882-3.843-2.079-5.229q-1.701-2.079-4.914-2.079c-1.953 0-3.591.693-4.914 1.953-1.26 1.323-2.079 3.087-2.331 5.355zM55.726 106h-9.072V86.596c0-2.142-.378-3.78-1.008-4.914-.693-1.134-2.079-1.764-4.158-1.764-4.158 0-6.237 2.646-6.237 7.812V106h-8.946V86.218c0-2.016-.378-3.528-1.008-4.662-.693-1.134-2.016-1.701-3.906-1.701-4.347 0-6.489 2.835-6.489 8.505V106H5.956V73.492h8.505v4.473c2.52-3.528 5.985-5.355 10.332-5.355 4.473 0 7.56 1.827 9.198 5.355 2.583-3.528 6.111-5.355 10.647-5.355 3.528 0 6.3 1.071 8.19 3.15s2.898 4.851 2.898 8.379zm16.207-44.856v7.56h-8.946v-7.56zm0 12.348V106h-8.946V73.492zm23.046-.945c4.977 0 9.009 1.575 12.033 4.725s4.599 7.308 4.599 12.474c0 5.229-1.575 9.387-4.599 12.537s-7.119 4.725-12.159 4.725c-5.103 0-9.198-1.575-12.222-4.725-3.087-3.15-4.599-7.308-4.599-12.537 0-5.166 1.512-9.324 4.662-12.474q4.63-4.725 12.285-4.725m-.252 6.804q-3.591 0-5.67 2.835c-1.386 1.827-2.079 4.347-2.079 7.623q0 4.914 2.08 7.749c1.385 1.827 3.275 2.772 5.795 2.772 2.457 0 4.347-.945 5.733-2.835s2.079-4.473 2.079-7.812c0-3.213-.756-5.733-2.142-7.56s-3.339-2.772-5.796-2.772m31.962-18.207V106h-8.946V61.144zM163.973 106h-9.135a16.3 16.3 0 0 1-.63-3.15c-2.709 2.772-6.237 4.095-10.521 4.095-3.591 0-6.426-.819-8.505-2.583-2.016-1.764-3.087-4.158-3.087-7.245 0-1.386.189-2.583.567-3.654a6.75 6.75 0 0 1 1.764-2.646 25 25 0 0 1 2.331-1.764q1.134-.661 3.024-1.134c1.323-.252 2.394-.504 3.15-.63.819-.126 1.953-.315 3.402-.504 3.15-.378 5.229-.819 6.3-1.323 1.071-.441 1.638-1.323 1.638-2.583q0-4.347-5.859-4.347-3.119 0-4.536 1.134c-1.008.756-1.638 2.016-1.89 3.843h-8.379c.504-7.308 5.481-10.962 15.057-10.962q14.175 0 14.175 10.584V97.18c0 4.158.378 7.056 1.134 8.82m-9.828-15.813c-1.008.63-3.15 1.26-6.3 1.764-2.646.378-4.347.945-5.166 1.575-.882.756-1.386 1.89-1.386 3.276 0 1.323.441 2.394 1.323 3.15q1.323 1.134 3.591 1.134c2.394 0 4.347-.63 5.796-1.89s2.142-3.087 2.142-5.355zM200.527 106h-9.072V87.037c0-2.268-.378-4.032-1.134-5.229s-2.268-1.827-4.41-1.827c-4.725 0-7.056 2.898-7.056 8.568V106h-8.883V73.492h8.505v4.536c2.646-3.591 6.237-5.418 10.773-5.418 3.465 0 6.237 1.008 8.253 3.024s3.024 4.914 3.024 8.631zm24.619-32.508v6.111h-6.615v15.309c0 .945 0 1.638.063 2.079 0 .441.189.882.441 1.386.252.441.63.756 1.134.882q.756.189 2.268.189c1.071 0 1.953 0 2.709-.126v6.804a64 64 0 0 1-5.418.252c-3.906 0-6.615-.63-8.001-2.016q-2.079-2.079-2.079-7.938V79.54h-5.418v-6.048h5.418v-9.828h8.883v9.828z" opacity=".6"/></svg>