<svg xmlns="http://www.w3.org/2000/svg" width="88" height="31" fill="none" viewBox="0 0 88 31"><title>Made by a human, not by AI.</title><g clip-path="url(#clip0_115_27)"><path fill="#ccc" d="M0 0h88v31H0z"/><path fill="#fff" d="M0 0h88l-2 2H2v27l-2 2z"/><path fill="#000" d="M88 31H0l2-2h84V2l2-2z"/><path fill="#a60808" d="M33.723 24v-8.64h1.464l4.008 6.09v-6.09h1.464V24h-1.464l-4.008-6.09V24zm11.475.18q-.972 0-1.698-.438a3 3 0 0 1-1.128-1.206q-.396-.774-.396-1.776 0-1.02.408-1.788t1.134-1.2 1.68-.432q.978 0 1.704.438t1.128 1.212q.402.768.402 1.77 0 1.008-.408 1.782a3 3 0 0 1-1.128 1.206q-.726.432-1.698.432m0-1.356q.864 0 1.284-.576t.42-1.488q0-.942-.426-1.5-.426-.564-1.278-.564-.582 0-.96.264a1.5 1.5 0 0 0-.552.726q-.18.462-.18 1.074 0 .942.426 1.506.432.558 1.266.558M53.552 24q-.642.12-1.26.102a2.9 2.9 0 0 1-1.098-.222 1.52 1.52 0 0 1-.738-.678 1.9 1.9 0 0 1-.234-.858 37 37 0 0 1-.012-.99V15.72h1.44v5.55q0 .39.006.684.012.294.126.48.216.36.69.402t1.08-.048zm-4.518-5.346V17.52h4.518v1.134zm11.428 5.526q-.948 0-1.59-.45t-.966-1.224a4.5 4.5 0 0 1-.324-1.746q0-.978.324-1.752t.948-1.218q.63-.45 1.554-.45.918 0 1.59.45.678.444 1.05 1.218.372.768.372 1.752 0 .972-.366 1.746a3 3 0 0 1-1.032 1.224q-.666.45-1.56.45M57.336 24v-8.64h1.458v4.092h-.18V24zm2.904-1.116q.564 0 .93-.282t.54-.762q.18-.486.18-1.08 0-.588-.18-1.068a1.64 1.64 0 0 0-.558-.768q-.378-.288-.96-.288-.552 0-.9.27a1.54 1.54 0 0 0-.516.744 3.4 3.4 0 0 0-.162 1.11q0 .63.162 1.11.168.48.522.75.36.264.942.264m4.92 3.996 1.249-3.426.024 1.008-2.826-6.942h1.506l2.004 5.136h-.384l1.95-5.136h1.446l-3.612 9.36zM72.827 24l2.724-8.64h2.118L80.392 24h-1.488l-2.472-7.752h.324L74.314 24zm1.518-1.872v-1.35h4.536v1.35zM81.597 24v-8.64h1.446V24z"/><path fill="#fff" d="M15 25c5.523 0 10-4.477 10-10S20.523 5 15 5 5 9.477 5 15s4.477 10 10 10"/><path fill="#000" d="m8.43 20 3.08-10.08h2.842L17.432 20h-1.96l-2.744-8.89h.364L10.39 20zm1.848-2.1v-1.778h5.32V17.9zm8.549 2.1V9.92h1.904V20z"/><path fill="#b20202" fill-opacity=".8" d="M13.67 5.09c-5.464.733-9.314 5.776-8.58 11.24.733 5.465 5.776 9.314 11.24 8.58 5.465-.733 9.314-5.776 8.58-11.24-.733-5.464-5.776-9.314-11.24-8.58M6.99 16.075a8.05 8.05 0 0 1 1.04-5.16l12.75 9.73a8.05 8.05 0 0 1-4.705 2.366c-4.417.593-8.492-2.519-9.085-6.936m14.956 3.05L9.19 9.388a8.05 8.05 0 0 1 4.735-2.398c4.417-.593 8.493 2.518 9.086 6.935a8.04 8.04 0 0 1-1.065 5.2"/><path fill="#000" d="M27.039 11h-.791V5.96h.76l1.742 3.57 1.743-3.57h.76V11h-.788V7.77L28.918 11h-.336L27.04 7.77zm6.254.105c-.822 0-1.267-.518-1.267-1.141 0-.55.263-.924.861-1.13.4-.13.984-.21 1.645-.309-.031-.434-.259-.637-.773-.637-.34 0-.7.144-.826.529l-.77-.242c.185-.637.707-1.06 1.596-1.06.672 0 1.207.203 1.456.704.133.266.143.535.143.86V11h-.738v-.508c-.322.42-.725.613-1.327.613m.168-.672c.574 0 .893-.364.977-.626.07-.172.08-.41.084-.588-.602.094-.945.147-1.211.238-.29.108-.459.252-.459.496 0 .277.21.48.61.48m4.324.672c-1.047 0-1.726-.861-1.726-1.995 0-1.148.686-1.995 1.757-1.995.378 0 .69.105.942.29V5.96h.85V11h-.745v-.28c-.27.245-.63.385-1.078.385m.13-.756c.678 0 .948-.508.948-1.239 0-.739-.277-1.239-.92-1.239-.68 0-.991.553-.991 1.239 0 .693.304 1.239.962 1.239m4.393.756c-1.148 0-1.928-.805-1.928-1.953 0-1.239.766-2.037 1.88-2.037 1.172 0 1.858.868 1.76 2.23h-2.737c.066.622.402.969.976.969.413 0 .721-.189.886-.539l.833.252c-.29.686-.942 1.078-1.67 1.078m-.014-3.251c-.567 0-.892.294-.99.853h1.862c-.074-.591-.35-.854-.872-.854M46.94 11h-.745V5.96h.85v1.446c.252-.186.564-.291.942-.291 1.07 0 1.757.847 1.757 1.995 0 1.134-.68 1.995-1.726 1.995-.448 0-.808-.14-1.078-.385zm.949-.651c.658 0 .962-.546.962-1.239 0-.686-.311-1.239-.99-1.239-.644 0-.92.5-.92 1.239 0 .732.269 1.239.948 1.239m3.661 2.331h-.79l.623-1.708-1.53-3.752h.878l1.057 2.706 1.026-2.706h.843zm5.088-1.575c-.823 0-1.267-.518-1.267-1.141 0-.55.262-.924.86-1.13.4-.13.984-.21 1.646-.309-.032-.434-.26-.637-.774-.637-.34 0-.7.144-.826.529l-.77-.242c.186-.637.707-1.06 1.596-1.06.672 0 1.208.203 1.456.704.133.266.144.535.144.86V11h-.739v-.508c-.322.42-.724.613-1.326.613m.168-.672c.574 0 .892-.364.976-.626.07-.172.08-.41.084-.588-.602.094-.945.147-1.21.238-.291.108-.46.252-.46.496 0 .277.21.48.61.48m5.056.567h-.854V5.96h.753v1.68c.276-.325.69-.528 1.235-.528 1.393 0 1.488 1.33 1.488 1.777V11h-.854V9.18c0-.466-.077-1.274-.882-1.274-.43 0-.886.234-.886 1.151zm4.953.108c-1.393 0-1.488-1.33-1.488-1.777V7.22h.854v1.82c0 .466.077 1.274.882 1.274.43 0 .886-.235.886-1.152V7.22h.847V11h-.746v-.42c-.276.325-.69.528-1.235.528M70.623 11h-.85V7.22h.745v.41a1.38 1.38 0 0 1 1.095-.505c.532 0 .903.235 1.103.603.234-.375.661-.602 1.151-.602.837 0 1.295.545 1.295 1.365V11h-.843V8.704c0-.518-.28-.826-.714-.826-.406 0-.714.294-.714.794V11h-.84V8.714c0-.524-.277-.836-.718-.836-.43 0-.71.322-.71.794zm6.509.105c-.823 0-1.267-.518-1.267-1.141 0-.55.263-.924.861-1.13.399-.13.984-.21 1.645-.309-.031-.434-.259-.637-.773-.637-.34 0-.7.144-.826.529l-.77-.242c.185-.637.707-1.06 1.596-1.06.671 0 1.207.203 1.456.704.132.266.143.535.143.86V11h-.739v-.508c-.322.42-.724.613-1.326.613m.168-.672c.574 0 .892-.364.977-.626.07-.172.08-.41.084-.588-.603.094-.946.147-1.212.238-.29.108-.458.252-.458.496 0 .277.21.48.609.48m3.655.567h-.854V7.22h.753v.42c.276-.325.69-.528 1.235-.528 1.393 0 1.488 1.33 1.488 1.777V11h-.854V9.18c0-.466-.077-1.274-.882-1.274-.43 0-.886.234-.886 1.151z"/></g><defs><clipPath id="clip0_115_27"><path fill="#fff" d="M0 0h88v31H0z"/></clipPath></defs></svg>